<?xml version="1.0" encoding="utf-8"?>
<!-- Generator: Adobe Illustrator 23.0.4, SVG Export Plug-In . SVG Version: 6.00 Build 0)  -->
<svg version="1.1" id="Layer_1" xmlns="http://www.w3.org/2000/svg" xmlns:xlink="http://www.w3.org/1999/xlink" x="0px" y="0px"
	 viewBox="0 0 701 140" style="enable-background:new 0 0 701 140;" xml:space="preserve">
<style type="text/css">
	.st0{fill:#FFFFFF;}
	.st1{fill:none;}
</style>
<path class="st0" d="M83.4,135.1c-0.5,0-0.8,0-1.1,0c-9.2,0-18.3,0-27.5,0c-0.8,0-1.2-0.3-1.6-0.9c-0.9-1.4-1.2-3-1.2-4.6
	c0-5.3-0.1-10.7-0.1-16c0-4.6-1.9-6.8-6.5-7.4c-0.8-0.1-1.6-0.2-2.4-0.2c-2.7,0-5.4,0-8.2,0c0,9.7,0,19.4,0,29.1
	c-10.1,0-20.1,0-30.1,0c0-23.8,0-47.5,0-71.4c0.4,0,0.8,0,1.3,0c14.9,0,29.7,0,44.6,0c5.3,0,10.7,0,15.9,1.5
	c4.2,1.2,7.9,3.3,11.1,6.2c3.8,3.4,4.7,8,4.4,12.8c-0.2,4.6-1.5,8.7-5.6,11.3c-2.1,1.3-4.4,2.2-6.7,3.1c-1.5,0.6-3.1,0.8-4.3,1.1
	c2.2,0.7,4.7,1.3,7,2.2c2.7,1,5,2.7,6.9,5c1.4,1.7,2.1,3.5,2.1,5.7c0,5.4,0.1,10.8,0,16.2c0,1.8,0.4,3.4,1.3,5
	C82.8,134,83,134.5,83.4,135.1z M34.7,93.8c3,0,6,0.1,8.9,0c2.1-0.1,4.1-0.8,5.9-2.1c2.8-2.1,3.4-5.1,3-8.3c-0.4-3-2.5-4.5-5.2-5.3
	c-4.1-1.2-8.4-0.7-12.6-0.8C34.7,82.8,34.7,88.2,34.7,93.8z"/>
<path class="st0" d="M94.5,5.5c0.3,0,0.5-0.1,0.7-0.1c15.4,0,30.9,0,46.3,0.1c5.7,0,11.3,0.7,16.7,2.7c7.7,2.8,12,8.2,13.6,16.1
	c0.9,4.7,0.5,9.1-2.1,13.2c-2.4,3.7-5.9,6-9.8,7.8c-5.5,2.5-11.4,3.6-17.3,3.9c-5.7,0.3-11.4,0.2-17.1,0.3c-0.3,0-0.5,0-0.9,0
	c0,9.1,0,18.2,0,27.3c-10.1,0-20.1,0-30.1,0C94.5,53.1,94.5,29.4,94.5,5.5z M124.7,18.9c0,5.9,0,11.5,0,17.1c2.1,0,4.2,0,6.3,0
	c2.3,0,4.4-0.5,6.4-1.5c3.6-1.8,5.3-5.9,4-9.7c-1-3-3.4-4.7-6.4-5.2C131.6,19,128.1,19.1,124.7,18.9z"/>
<path class="st0" d="M311.6,5.5c9.5,0,18.8,0,28.3,0c0,11.7,0,23.4,0,35.1c0.1,0.1,0.2,0.2,0.3,0.3c0.2-0.3,0.3-0.6,0.6-0.9
	c4.8-5.3,9.7-10.6,14.5-15.9c0.3-0.4,0.9-0.7,1.4-0.7c9.7,0,19.3,0,29,0c0.1,0,0.2,0,0.6,0.1c-7.8,7.3-15.6,14.5-23.4,21.8
	c8.8,10.6,17.7,21.1,26.6,31.7c-0.5,0-0.8,0.1-1.2,0.1c-9.6,0-19.2,0-28.8,0c-0.8,0-1.3-0.3-1.8-0.9c-4.3-5.6-8.7-11.2-13-16.7
	c-0.2-0.3-0.5-0.6-0.8-0.9c-1.3,1.4-2.6,2.8-3.8,4.2c-0.2,0.3-0.3,0.8-0.3,1.2c0,3.9,0,7.9,0,11.8c0,0.4,0,0.8,0,1.3
	c-9.5,0-18.9,0-28.3,0C311.6,53.1,311.6,29.4,311.6,5.5z"/>
<path class="st0" d="M652.6,135.1c-9.5,0-18.9,0-28.3,0c0-17.9,0-35.6,0-53.5c9,0,18,0,27.2,0c0,1.7,0,3.4,0,5.2
	c0.3-0.2,0.5-0.3,0.6-0.4c3.8-3.5,8.5-5,13.5-5.8c6.5-1,13-0.7,19.4,1.2c3.3,0.9,6.2,2.3,8,5.5c1.4,2.5,1.8,5.3,1.8,8.1
	c0,13.1,0,26.2,0,39.3c0,0.1,0,0.2-0.1,0.4c-9.4,0-18.8,0-28.3,0c0-0.4,0-0.8,0-1.2c0-11.3,0-22.7,0-34c0-4.8-1.7-6.5-6.6-6.4
	c-1.1,0-2.3,0.2-3.4,0.5c-2.4,0.7-3.7,2.6-3.7,5.1c0,11.6,0,23.2,0,34.7C652.6,134.1,652.6,134.6,652.6,135.1z"/>
<path class="st0" d="M578.9,136.7c-7.1,0-14.1-0.3-21-2.3c-4.6-1.4-8.6-3.6-11.1-7.9c-2.1-3.6-3.1-7.5-3.1-11.6
	c-0.1-5.3-0.3-10.7,0.3-15.9c0.9-7.8,4.1-13.4,12.8-16.4c4.4-1.5,9-2.2,13.6-2.5c6.7-0.5,13.4-0.5,20,0.2c5.1,0.5,10.2,1.5,14.9,3.9
	c4.6,2.4,7.3,6.3,8.5,11.2c0.6,2.3,0.9,4.7,1,7c0.2,5.8,0.5,11.7-0.7,17.5c-1.5,7.4-6,12-13.1,14.2c-5.6,1.7-11.3,2.3-17,2.6
	C582.3,136.8,580.6,136.7,578.9,136.7z M585.8,108.2L585.8,108.2c0-3.6,0-7.1,0-10.7c0-2-0.6-3.9-2.4-5.1c-2.7-1.8-5.7-1.8-8.6-0.6
	c-2.7,1.2-3.4,3.6-3.4,6.2c-0.1,6.1-0.1,12.2,0,18.2c0,1.7,0.3,3.5,0.7,5.2c0.2,0.9,0.8,1.8,1.5,2.4c2.6,2.1,5.5,2.4,8.5,1.2
	c2.8-1.1,3.6-3.7,3.8-6.4C585.9,115.1,585.8,111.6,585.8,108.2z"/>
<path class="st0" d="M245.8,77c-4.2,0-8.5,0-12.7,0c-4.4,0-8.8,0-13.2,0c-0.7,0-1.1-0.1-1.3-0.8c-0.4-1.6-0.7-3.1-1-4.4
	c-1.5,1-3.2,2.4-5.1,3.4c-3.3,1.8-6.9,2.3-10.6,2.7c-5.4,0.5-10.8,0.5-16-1c-4.6-1.4-8.5-3.8-10.3-8.5c-1.8-4.4-1.8-8.8,0-13.2
	c1.4-3.4,4.4-5.2,7.7-6.5c4.7-1.9,9.7-2.9,14.7-3.7c5.1-0.8,10.1-1.7,15.1-2.5c0.5-0.1,1-0.2,1.4-0.4c2.3-0.8,3.2-2,3.3-4.2
	c0-2.3-1-4-3.1-4.7c-2.7-1-5.5-1.1-8.3-0.3c-2.1,0.6-3.1,2.1-3.2,4.3c0,0.8,0,1.6,0,2.5c-8.9,0-17.7,0-26.6,0
	c-0.4-4.3,1.3-7.7,4.4-10.4c4.1-3.6,9.1-5.1,14.3-6.3c7.7-1.6,15.4-1,23.1-0.6c4.8,0.3,9.6,0.9,14.2,2.2c4,1.2,7.6,3.1,9.7,6.9
	c1.3,2.3,1.7,4.9,1.7,7.5c0,9.6,0,19.1,0,28.7c0,3.2-0.6,6.5,2.1,9.1C246,76.8,245.9,76.9,245.8,77z M217.9,50.6
	c-3.7,1-7.2,1.9-10.7,3c-1.4,0.4-2.6,1.3-3.9,2.2c-1,0.7-1.7,1.8-1.8,3.1c-0.2,2.7,1.2,5.2,3.6,6.4c2.5,1.2,5,1.2,7.6,0.5
	c2.4-0.7,4.1-2.2,4.7-4.7C218.2,57.5,217.8,54.1,217.9,50.6z"/>
<path class="st0" d="M447.9,135.1c-0.5,0-0.9,0.1-1.2,0.1c-8.2,0-16.4,0-24.6,0c-0.8,0-1.3-0.1-1.5-1c-0.3-1.5-0.7-3-0.9-4.2
	c-1.5,1-3.2,2.4-5.1,3.4c-4,2.1-8.4,2.6-12.9,2.8c-5.1,0.3-10.2,0.1-15-1.6c-7.1-2.6-10.7-8.3-10.2-15.9c0.4-6,3.4-9.6,8.8-11.8
	c5.1-2,10.4-3.1,15.7-3.9c4.6-0.7,9.3-1.5,13.9-2.3c0.6-0.1,1.3-0.3,1.9-0.5c2.1-0.7,3-2,3.1-3.9c0.1-2.3-0.8-4-2.8-4.8
	c-2.9-1.2-5.9-1.3-8.9-0.3c-1.9,0.6-2.9,2.1-3,4.1c0,0.8,0,1.7,0,2.6c-8.9,0-17.7,0-26.6,0c-0.4-3,0.5-5.8,2.3-8.2
	c2.8-3.7,6.7-5.7,10.9-7.1c5.6-1.8,11.3-2.7,17.1-2.5c7,0.2,14,0.3,20.9,1.6c3.3,0.6,6.5,1.3,9.4,3c4.3,2.4,6.6,6.1,6.7,11
	c0.1,8.1,0.1,16.2,0.1,24.3c0,3,0.1,6,0,8.9c0,2,0.4,3.8,1.5,5.4C447.6,134.5,447.7,134.7,447.9,135.1z M419.7,108.8
	c-3.7,1-7.2,1.9-10.8,3c-1,0.3-2,0.9-2.8,1.5c-3.4,2.2-3.5,6.7-0.4,9.3c1.7,1.4,3.7,1.7,5.8,1.7c5.1-0.1,7.8-2.5,8.1-7.5
	C419.8,114.1,419.7,111.6,419.7,108.8z"/>
<path class="st0" d="M328.7,111c0,3.1,0,6,0,8.9c0,2.5,1.1,4.1,3.5,4.8c2.7,0.9,5.4,1,8.1,0.1c2.5-0.7,3.9-2.7,4-5.3c0.1-1,0-2,0-3
	c0.4,0,0.6-0.1,0.8-0.1c8.4,0,16.7,0,25.1,0c1.3,0,1.8,0.5,1.2,1.6c-1.7,3.3-2.8,7-5.4,9.9c-3.1,3.3-6.9,5.2-11.2,6.4
	c-4.3,1.2-8.7,1.7-13.1,1.9c-6.5,0.3-12.9,0.2-19.3-0.9c-5.2-0.9-10.3-2.3-14.5-5.9c-3.1-2.6-4.9-6-6.1-9.8
	c-1.7-5.6-2-11.4-1.3-17.2c1.3-10.5,6.7-17.4,17.9-20.6c5.9-1.7,12.1-1.8,18.2-2c6.8-0.2,13.6,0.2,20.2,2.2c3.9,1.2,7.4,3,10,6.2
	c2.3,2.9,3.3,6.2,3.6,9.9c0.2,2.6,0.5,5.2,0.6,7.8c0.1,1.4-0.2,2.8-0.3,4.2c-0.1,0.7-0.4,0.9-1.1,0.9c-2.6,0-5.3,0-7.9,0
	c-10.4,0-20.9,0-31.3,0C329.9,111,329.5,111,328.7,111z M328.4,101.2c5.6,0,10.7,0,16.1,0c-0.1-1.9-0.2-3.7-0.4-5.5
	c-0.3-2.4-1.7-3.8-4-4.5s-4.5-0.7-6.8,0c-1.9,0.6-3.4,1.8-3.9,3.7C328.9,97,328.7,99,328.4,101.2z"/>
<path class="st0" d="M118.5,111c-0.1,3.2-0.3,6.3-0.2,9.4c0,2.1,1.3,3.6,3.3,4.3c2.8,1,5.6,1,8.4,0.1c2.3-0.7,3.5-2.3,3.8-4.7
	c0.1-1.2,0.2-2.3,0.2-3.6c0.2,0,0.4-0.1,0.7-0.1c8.4,0,16.7,0,25.1,0c1.4,0,1.8,0.4,1.3,1.5c-1.7,3.4-2.8,7.2-5.6,10.1
	c-3.1,3.3-6.9,5.1-11.1,6.3c-4.3,1.2-8.7,1.7-13.1,1.8c-6.4,0.2-12.8,0.2-19.2-0.9c-5.1-0.9-10.1-2.2-14.2-5.6
	c-3.1-2.6-5.2-5.9-6.3-9.8c-2.2-7.2-2.4-14.6-0.5-21.9c1.8-7.1,6.4-11.9,13.1-14.8c4.2-1.8,8.5-2.7,13-2.9
	c5.4-0.3,10.8-0.4,16.3-0.3c5.7,0.1,11.3,1,16.6,3.4c6.3,2.9,9.6,7.9,9.9,14.9c0.1,2.3,0.5,4.6,0.5,7c0.1,1.5-0.2,3.1-0.2,4.7
	c0,0.9-0.5,1.1-1.3,1.1c-7.6,0-15.1,0-22.7,0c-5.5,0-11,0-16.5,0C119.4,111,119,111,118.5,111z M134.1,101.2c-0.2-2-0.3-3.8-0.5-5.7
	c-0.3-2.1-1.5-3.5-3.6-4.2c-2.4-0.8-4.8-1-7.2-0.1c-1.2,0.5-2.4,1.3-3.1,2.3c-1.6,2.2-1.5,4.9-1.5,7.6
	C123.5,101.2,128.7,101.2,134.1,101.2z"/>
<path class="st0" d="M238.5,101.2c-8.7,0-17.2,0-25.7,0c-0.2-1.5-0.3-3-0.6-4.4c-0.8-4.4-2.6-6-7.1-6.1c-1.3,0-2.8,0.2-4,0.6
	c-2.9,1-4.6,3.2-4.6,6.3c0.1,6.7-0.1,13.5,1,20.1c0.1,0.5,0.1,0.9,0.2,1.4c0.4,2.9,2.4,5,5.3,5.1c1.6,0.1,3.2,0,4.8-0.4
	c2.9-0.7,4.5-2.7,4.8-5.6c0.2-2,0.2-4,0.3-6c8.5,0,17.1,0,25.7,0c0,1.5,0.2,3,0,4.5c-1.1,7.6-5.5,12.7-12.4,15.7
	c-5.1,2.2-10.4,3-15.8,3.3c-7.5,0.4-15.1,0.3-22.5-1.2c-5.5-1.2-10.6-3.3-14.8-7.1c-3.8-3.5-5.9-7.9-6.6-13
	c-0.7-5.3,0.2-10.4,1.8-15.5c0.9-2.7,1.8-5.5,3.2-7.9c2.6-4.7,7-7.2,11.9-9c5.4-1.9,11.1-2.7,16.8-2.9c7.6-0.2,15.2-0.1,22.7,1.5
	c4.3,0.9,8.4,2.4,11.3,6C237.3,91,238.6,95.8,238.5,101.2z"/>
<path class="st0" d="M389.5,60.1c8.6,0,17.1,0,25.6,0c0.1,0.9,0.1,1.7,0.2,2.5c0.2,2.1,1.4,3.6,3.3,4.2c3.2,1.1,6.5,1.1,9.8-0.1
	c1.4-0.5,2.5-1.5,2.8-3.1c0.3-1.8-0.5-3.1-1.9-4c-1.1-0.7-2.3-1.2-3.5-1.5c-6.8-1.7-13.7-3.2-20.5-4.9c-3.4-0.8-6.5-2.2-9.3-4.3
	c-7.2-5.4-7.5-14.3-0.8-20.3c3-2.6,6.5-4,10.3-4.9c7.5-1.8,15.2-2.3,22.9-2c5.6,0.2,11.1,0.7,16.5,2.5c1.7,0.6,3.5,1.3,5,2.2
	c3.9,2.2,5.9,5.5,6,10c0,0.8,0,1.5,0,2.4c-8.2,0-16.4,0-24.7,0c0-0.6,0-1.1,0-1.7c0-1.9-0.9-3.2-2.6-3.8c-3.1-1-6.3-1.1-9.5-0.1
	c-1.5,0.5-2.6,1.5-2.6,3.3c0,1.6,0.9,2.7,2.3,3.2c2.5,0.8,5,1.4,7.5,2c6.3,1.5,12.6,2.8,18.8,4.4c2.4,0.6,4.8,1.7,7,2.9
	c3.9,2.1,5.2,5.7,5.1,9.9c-0.2,8.2-4.9,13-12,16c-4.5,1.9-9.2,2.7-14,3.1c-8.1,0.7-16.1,0.3-24.1-1.1c-4.6-0.8-9.1-2.2-12.8-5.1
	C390.8,68.9,389.3,64.9,389.5,60.1z"/>
<path class="st0" d="M500.1,123.5c0,3.9,0,7.7,0,11.6c-2.4,0.2-4.8,0.5-7.3,0.6c-6.5,0.1-13.1,0.4-19.6-0.4c-1.7-0.2-3.3-0.5-5-0.8
	c-4.4-0.7-6.5-3.7-7.2-7.8c-0.2-1-0.3-2-0.3-3.1c0-9.6,0-19.1,0-28.7c0-0.4,0-0.8,0-1.3c-3.5,0-6.9,0-10.4,0c0-4.1,0-8,0-12.1
	c3.4,0,6.8,0,10.3,0c0-5.3,0-10.4,0-15.6c9.5,0,18.8,0,28.3,0c0,5.1,0,10.3,0,15.5c3.7,0,7.4,0,11,0c0,4.1,0,8,0,12.1
	c-3.6,0-7.2,0-10.9,0c0,0.5-0.1,0.8-0.1,1.1c0,7.9,0,15.8,0,23.7c0,3.4,1.1,4.7,4.6,5c1.7,0.1,3.4,0.1,5.2,0.1
	C499.2,123.5,499.6,123.5,500.1,123.5z"/>
<path class="st0" d="M255.4,23.4c9.1,0,18.1,0,27.2,0c0,2.3,0,4.6,0,7.1c1.4-1.3,2.7-2.5,4-3.6c4.2-3.5,9.1-4.9,14.4-5.1
	c2.1-0.1,4.3,0,6.5,0c0,5.6,0,11.2,0,16.8c-2.8,0-5.5-0.2-8.2,0c-3.1,0.2-6.2,0.6-9.2,1.3c-4.6,1.1-6.4,3.7-6.4,8.4
	c0,9.1,0,18.3,0,27.4c0,0.4,0,0.8,0,1.3c-9.5,0-18.9,0-28.3,0C255.4,59.1,255.4,41.3,255.4,23.4z"/>
<path class="st0" d="M298.4,96.9c-5-0.4-10-0.3-14.9,0.6c-1.6,0.3-3.1,0.7-4.6,1.4c-2.7,1.2-4.1,3.4-4.1,6.3c-0.1,7.9,0,15.9,0,23.8
	c0,2,0,4,0,6c-9.5,0-18.8,0-28.3,0c0-17.8,0-35.6,0-53.5c9,0,18.1,0,27.2,0c0,2.4,0,4.7,0,7.4c6.6-8.1,15.3-9.6,24.8-8.9
	C298.4,85.6,298.4,91.1,298.4,96.9z"/>
<path class="st0" d="M534.1,135.1c-9.5,0-18.9,0-28.3,0c0-17.8,0-35.6,0-53.5c9.4,0,18.8,0,28.3,0
	C534.1,99.4,534.1,117.2,534.1,135.1z"/>
<path class="st0" d="M534.1,63.7c0,4.5,0,9,0,13.5c-9.4,0-18.8,0-28.3,0c0-4.5,0-9,0-13.5C515.3,63.7,524.7,63.7,534.1,63.7z"/>
<path class="st0" d="M525.7,41.3c0-2.3,0-4.5,0-6.7c3,0,5.9,0,8.9,0c0,7.1,0,14.1,0,21.3c-2.8,0-5.6,0-8.5,0c0-0.4-0.1-0.8-0.2-1.4
	c-2.8,2-5.8,2.3-8.9,1.5c-3.8-1-5.5-3.2-5.3-7.2c0.1-1.6,0.2-3.1,0.6-4.6c0.6-2.8,2.5-4.3,5.3-4.7C520.5,39,523.2,39.5,525.7,41.3z
	 M520.8,47.5L520.8,47.5c0,1.1,0.1,2.3,0.3,3.4c0.3,1.1,1.1,1.5,2.2,1.4c1.3-0.1,2.2-0.7,2.2-1.7c0.1-1.7,0.1-3.5-0.1-5.2
	c-0.2-1.4-1.1-2-2.4-1.9c-1.6,0.1-2.2,0.8-2.3,2.4C520.8,46.3,520.8,46.9,520.8,47.5z"/>
<path class="st0" d="M486.8,39.9c2.8,0,5.6,0,8.4,0c0,0.4,0.1,0.9,0.1,1.3c0.8-0.4,1.5-0.9,2.2-1.1c2.9-1,5.9-1,8.8-0.1
	c1.9,0.6,2.6,1.8,2.6,4.1c0,3.1,0,6.2,0,9.3c0,0.8,0,1.6,0,2.4c-3,0-5.9,0-9,0c0-3.1,0-6.2,0-9.3c0-0.3,0-0.6,0-0.9
	c0-2-1.8-3.1-3.5-1.9c-0.4,0.3-0.8,1.1-0.8,1.6c-0.1,3.5,0,6.9,0,10.5c-3,0-5.9,0-8.9,0C486.8,50.6,486.8,45.3,486.8,39.9z"/>
<path class="st0" d="M474.6,54.7c-3.5,2-7.3,2.3-11.1,0.7c-1.8-0.7-2.4-2.3-2.3-4.2c0.1-1.8,1-3.1,2.7-3.6c2.6-0.7,5.3-1.1,7.9-1.7
	c0.7-0.1,1.4-0.1,2-0.4c0.4-0.2,1-0.8,1-1.3s-0.5-1.2-1-1.3c-0.8-0.2-1.7-0.3-2.4-0.1c-0.6,0.2-1,1-1.4,1.6c0.1,0.1,0.2,0.2,0.3,0.3
	c-2.7,0-5.5,0-8.3,0c-0.2-1.4,0.5-2.4,1.5-3.2c1.8-1.4,3.9-2,6-2c3.2,0,6.4,0.1,9.6,0.6c3.1,0.5,4.1,1.9,4.1,5c0,2.6,0,5.1,0,7.7
	c0,1,0.2,2,0.3,3.1c-2.5,0-5.1,0.1-7.7-0.1C475.3,55.9,474.9,55.1,474.6,54.7z M474.8,48c-1.4,0.5-2.8,0.8-4.1,1.3
	c-1.1,0.5-1.3,1.5-0.7,2.4c0.7,1,1.8,1.1,2.9,0.9c1.1-0.2,1.8-0.8,1.9-1.8C474.8,49.9,474.8,49,474.8,48z"/>
<path class="st1" d="M34.7,93.8c0-5.6,0-11,0-16.5c4.2,0.1,8.5-0.4,12.6,0.8c2.7,0.8,4.8,2.3,5.2,5.3c0.4,3.2-0.2,6.2-3,8.3
	c-1.7,1.3-3.8,2-5.9,2.1C40.7,93.9,37.7,93.8,34.7,93.8z"/>
<path class="st1" d="M124.7,18.9c3.5,0.2,6.9,0.2,10.3,0.7c2.9,0.5,5.3,2.2,6.4,5.2c1.3,3.8-0.4,7.9-4,9.7c-2,1-4.1,1.5-6.4,1.5
	c-2.1,0-4.1,0-6.3,0C124.7,30.3,124.7,24.8,124.7,18.9z"/>
<path class="st1" d="M585.8,108.2c0,3.5,0.1,7,0,10.4c-0.1,2.7-0.9,5.3-3.8,6.4c-3,1.2-6,0.9-8.5-1.2c-0.7-0.6-1.3-1.5-1.5-2.4
	c-0.4-1.7-0.7-3.5-0.7-5.2c-0.1-6.1,0-12.1,0-18.2c0-2.7,0.8-5.1,3.4-6.2c2.9-1.3,5.9-1.3,8.6,0.6c1.8,1.2,2.3,3.1,2.4,5.1
	C585.8,101.1,585.8,104.6,585.8,108.2L585.8,108.2z"/>
<path class="st1" d="M217.9,50.6c-0.1,3.5,0.3,6.9-0.5,10.3c-0.6,2.5-2.2,4-4.7,4.7c-2.6,0.7-5.1,0.7-7.6-0.5
	c-2.5-1.2-3.9-3.7-3.6-6.4c0.1-1.3,0.8-2.4,1.8-3.1c1.2-0.8,2.5-1.7,3.9-2.2C210.6,52.4,214.2,51.6,217.9,50.6z"/>
<path class="st1" d="M419.7,108.8c0,2.8,0.2,5.4,0,7.9c-0.4,5-3.1,7.5-8.1,7.5c-2.1,0-4.1-0.4-5.8-1.7c-3.2-2.5-3-7.1,0.4-9.3
	c0.9-0.6,1.8-1.2,2.8-1.5C412.4,110.7,416,109.8,419.7,108.8z"/>
<path class="st1" d="M328.4,101.2c0.3-2.2,0.5-4.3,1-6.2c0.5-1.9,1.9-3.2,3.9-3.7c2.2-0.7,4.5-0.7,6.8,0s3.7,2.1,4,4.5
	c0.2,1.8,0.3,3.6,0.4,5.5C339.1,101.2,334,101.2,328.4,101.2z"/>
<path class="st1" d="M134.1,101.2c-5.4,0-10.6,0-15.8,0c-0.1-2.7-0.2-5.4,1.5-7.6c0.7-1,1.9-1.9,3.1-2.3c2.3-0.9,4.8-0.8,7.2,0.1
	c2,0.7,3.3,2.1,3.6,4.2C133.8,97.4,133.9,99.2,134.1,101.2z"/>
<path class="st1" d="M520.8,47.5c0-0.6,0-1.1,0-1.7c0-1.6,0.7-2.3,2.3-2.4c1.3-0.1,2.2,0.5,2.4,1.9c0.2,1.7,0.2,3.5,0.1,5.2
	c0,1.1-0.9,1.6-2.2,1.7c-1.1,0.1-2-0.3-2.2-1.4c-0.3-1.1-0.3-2.2-0.4-3.4C520.7,47.5,520.8,47.5,520.8,47.5z"/>
<path class="st1" d="M474.8,48c0,1.1,0.1,1.9,0,2.8c-0.1,1.1-0.8,1.7-1.9,1.8c-1.1,0.2-2.2,0.1-2.9-0.9c-0.6-0.9-0.4-1.9,0.7-2.4
	C472,48.8,473.3,48.4,474.8,48z"/>
</svg>
